<svg xmlns="http://www.w3.org/2000/svg" xmlns:xlink="http://www.w3.org/1999/xlink" width="250" zoomAndPan="magnify" viewBox="0 0 187.5 187.499995" height="250" preserveAspectRatio="xMidYMid meet" version="1.0"><defs><g><g id="id1"/><g id="id2"/></g></defs><g fill="rgb(0%, 0%, 0%)" fill-opacity="1"><g transform="translate(6.316072, 108.455448)"><g><path d="M 7.699219 0.0664062 L 9.113281 0.0664062 L 13.878906 -13.105469 L 13.878906 -1.367188 C 13.878906 -0.75 13.636719 -0.574219 12.6875 -0.484375 L 12.6875 0 L 19.484375 0 L 19.484375 -0.484375 C 18.535156 -0.574219 18.292969 -0.75 18.292969 -1.367188 L 18.292969 -13.636719 C 18.292969 -14.253906 18.578125 -14.410156 19.484375 -14.519531 L 19.484375 -15.003906 L 13.703125 -15.003906 L 10.304688 -5.5625 L 6.90625 -15.003906 L 0.882812 -15.003906 L 0.882812 -14.519531 C 1.789062 -14.410156 2.074219 -14.253906 2.074219 -13.636719 L 2.074219 -2.957031 C 2.074219 -1.300781 1.632812 -0.484375 0.242188 -0.484375 L 0.242188 0 L 5.097656 0 L 5.097656 -0.484375 C 3.398438 -0.484375 3.046875 -1.566406 3 -3.574219 C 2.957031 -6.421875 2.890625 -9.820312 2.847656 -13.238281 Z M 7.699219 0.0664062 "/></g></g></g><g fill="rgb(0%, 0%, 0%)" fill-opacity="1"><g transform="translate(26.5663, 108.455448)"><g><path d="M 0.773438 0 L 7.390625 0 C 12.421875 0 15.953125 -2.734375 15.953125 -7.503906 C 15.953125 -12.3125 12.3125 -15.003906 7.390625 -15.003906 L 0.773438 -15.003906 L 0.773438 -14.519531 C 1.675781 -14.410156 1.964844 -14.253906 1.964844 -13.636719 L 1.964844 -1.367188 C 1.964844 -0.75 1.675781 -0.597656 0.773438 -0.484375 Z M 6.398438 -0.707031 L 6.398438 -14.300781 L 7.480469 -14.300781 C 10.019531 -14.300781 11.277344 -12.027344 11.277344 -7.503906 C 11.277344 -2.980469 10.019531 -0.707031 7.480469 -0.707031 Z M 6.398438 -0.707031 "/></g></g></g><g fill="rgb(0%, 0%, 0%)" fill-opacity="1"><g transform="translate(43.419433, 108.455448)"><g><path d="M 0.773438 0 L 7.570312 0 L 7.570312 -0.484375 C 6.621094 -0.574219 6.378906 -0.75 6.378906 -1.367188 L 6.378906 -13.636719 C 6.378906 -14.253906 6.621094 -14.429688 7.570312 -14.519531 L 7.570312 -15.003906 L 0.773438 -15.003906 L 0.773438 -14.519531 C 1.722656 -14.429688 1.964844 -14.253906 1.964844 -13.636719 L 1.964844 -1.367188 C 1.964844 -0.75 1.722656 -0.574219 0.773438 -0.484375 Z M 0.773438 0 "/></g></g></g><g fill="rgb(0%, 0%, 0%)" fill-opacity="1"><g transform="translate(51.757767, 108.455448)"><g><path d="M 12.003906 0.0664062 L 13.769531 0.0664062 L 13.769531 -12.046875 C 13.769531 -13.703125 14.210938 -14.519531 15.601562 -14.519531 L 15.601562 -15.003906 L 10.746094 -15.003906 L 10.746094 -14.519531 C 12.445312 -14.519531 12.796875 -13.4375 12.84375 -11.429688 C 12.886719 -9.839844 12.910156 -8.140625 12.929688 -5.914062 L 6.441406 -15.003906 L 0.882812 -15.003906 L 0.882812 -14.519531 C 1.789062 -14.410156 2.074219 -14.253906 2.074219 -13.636719 L 2.074219 -2.957031 C 2.074219 -1.300781 1.632812 -0.484375 0.242188 -0.484375 L 0.242188 0 L 5.097656 0 L 5.097656 -0.484375 C 3.441406 -0.484375 3.046875 -1.566406 3 -3.574219 L 2.867188 -12.578125 Z M 12.003906 0.0664062 "/></g></g></g><g fill="rgb(0%, 0%, 0%)" fill-opacity="1"><g transform="translate(67.353528, 108.455448)"><g><path d="M 0.773438 0 L 7.570312 0 L 7.570312 -0.484375 C 6.621094 -0.574219 6.378906 -0.75 6.378906 -1.367188 L 6.378906 -13.636719 C 6.378906 -14.253906 6.621094 -14.429688 7.570312 -14.519531 L 7.570312 -15.003906 L 0.773438 -15.003906 L 0.773438 -14.519531 C 1.722656 -14.429688 1.964844 -14.253906 1.964844 -13.636719 L 1.964844 -1.367188 C 1.964844 -0.75 1.722656 -0.574219 0.773438 -0.484375 Z M 0.773438 0 "/></g></g></g><g fill="rgb(0%, 0%, 0%)" fill-opacity="1"><g transform="translate(75.691862, 108.455448)"><g><path d="M 1.101562 0 L 13.019531 0 L 13.679688 -4.480469 L 13.195312 -4.480469 C 12.226562 -2.648438 10.769531 -0.726562 8.453125 -0.726562 L 6.132812 -0.726562 L 13.371094 -14.476562 L 13.371094 -15.003906 L 2.183594 -15.003906 L 1.523438 -10.527344 L 2.007812 -10.527344 C 2.980469 -12.355469 4.433594 -14.277344 6.753906 -14.277344 L 8.363281 -14.277344 L 1.101562 -0.441406 Z M 1.101562 0 "/></g></g></g><g fill="rgb(0%, 0%, 0%)" fill-opacity="1"><g transform="translate(90.25085, 108.455448)"><g><path d="M 3.773438 0 L 10.570312 0 L 10.570312 -0.484375 C 9.621094 -0.574219 9.378906 -0.75 9.378906 -1.367188 L 9.378906 -14.234375 C 11.011719 -13.96875 12.378906 -12.710938 13.503906 -10.527344 L 13.988281 -10.527344 L 13.328125 -15.09375 C 13.304688 -15.226562 13.21875 -15.292969 13.085938 -15.269531 C 12.46875 -15.136719 10.945312 -15.003906 10.304688 -15.003906 L 4.039062 -15.003906 C 3.398438 -15.003906 1.875 -15.136719 1.257812 -15.269531 C 1.125 -15.292969 1.039062 -15.226562 1.015625 -15.09375 L 0.351562 -10.527344 L 0.839844 -10.527344 C 1.964844 -12.710938 3.332031 -13.96875 4.964844 -14.234375 L 4.964844 -1.367188 C 4.964844 -0.75 4.722656 -0.574219 3.773438 -0.484375 Z M 3.773438 0 "/></g></g></g><g fill="rgb(0%, 0%, 0%)" fill-opacity="1"><g transform="translate(104.58924, 108.455448)"><g><path d="M 0 0 L 5.121094 0 L 5.121094 -0.484375 C 2.914062 -0.484375 2.582031 -1.433594 3.75 -4.214844 L 4.039062 -4.875 L 8.5625 -4.875 L 9.246094 -3.089844 C 9.929688 -1.324219 10.019531 -0.484375 8.894531 -0.484375 L 8.894531 0 L 15.578125 0 L 15.578125 -0.484375 C 14.71875 -0.484375 14.429688 -0.75 14.144531 -1.433594 L 8.472656 -15.335938 L 7.503906 -15.335938 L 2.316406 -2.757812 C 1.675781 -1.214844 0.949219 -0.484375 0 -0.484375 Z M 4.347656 -5.625 L 6.398438 -10.480469 L 8.273438 -5.625 Z M 4.347656 -5.625 "/></g></g></g><g fill="rgb(0%, 0%, 0%)" fill-opacity="1"><g transform="translate(120.383542, 108.455448)"><g><path d="M 3.773438 0 L 10.570312 0 L 10.570312 -0.484375 C 9.621094 -0.574219 9.378906 -0.75 9.378906 -1.367188 L 9.378906 -14.234375 C 11.011719 -13.96875 12.378906 -12.710938 13.503906 -10.527344 L 13.988281 -10.527344 L 13.328125 -15.09375 C 13.304688 -15.226562 13.21875 -15.292969 13.085938 -15.269531 C 12.46875 -15.136719 10.945312 -15.003906 10.304688 -15.003906 L 4.039062 -15.003906 C 3.398438 -15.003906 1.875 -15.136719 1.257812 -15.269531 C 1.125 -15.292969 1.039062 -15.226562 1.015625 -15.09375 L 0.351562 -10.527344 L 0.839844 -10.527344 C 1.964844 -12.710938 3.332031 -13.96875 4.964844 -14.234375 L 4.964844 -1.367188 C 4.964844 -0.75 4.722656 -0.574219 3.773438 -0.484375 Z M 3.773438 0 "/></g></g></g><g fill="rgb(0%, 0%, 0%)" fill-opacity="1"><g transform="translate(134.721932, 108.455448)"><g><path d="M 3.773438 0 L 10.570312 0 L 10.570312 -0.484375 C 9.621094 -0.574219 9.378906 -0.75 9.378906 -1.367188 L 9.378906 -14.234375 C 11.011719 -13.96875 12.378906 -12.710938 13.503906 -10.527344 L 13.988281 -10.527344 L 13.328125 -15.09375 C 13.304688 -15.226562 13.21875 -15.292969 13.085938 -15.269531 C 12.46875 -15.136719 10.945312 -15.003906 10.304688 -15.003906 L 4.039062 -15.003906 C 3.398438 -15.003906 1.875 -15.136719 1.257812 -15.269531 C 1.125 -15.292969 1.039062 -15.226562 1.015625 -15.09375 L 0.351562 -10.527344 L 0.839844 -10.527344 C 1.964844 -12.710938 3.332031 -13.96875 4.964844 -14.234375 L 4.964844 -1.367188 C 4.964844 -0.75 4.722656 -0.574219 3.773438 -0.484375 Z M 3.773438 0 "/></g></g></g><g fill="rgb(0%, 0%, 0%)" fill-opacity="1"><g transform="translate(149.060322, 108.455448)"><g><path d="M 8.453125 0.332031 C 12.976562 0.332031 15.996094 -2.800781 15.996094 -7.503906 C 15.996094 -12.203125 12.976562 -15.335938 8.453125 -15.335938 C 3.929688 -15.335938 0.90625 -12.203125 0.90625 -7.503906 C 0.90625 -2.800781 3.929688 0.332031 8.453125 0.332031 Z M 8.453125 -0.351562 C 6.730469 -0.351562 5.582031 -3.222656 5.582031 -7.503906 C 5.582031 -11.785156 6.730469 -14.652344 8.453125 -14.652344 C 10.171875 -14.652344 11.320312 -11.785156 11.320312 -7.503906 C 11.320312 -3.222656 10.171875 -0.351562 8.453125 -0.351562 Z M 8.453125 -0.351562 "/></g></g></g><g fill="rgb(0%, 0%, 0%)" fill-opacity="1"><g transform="translate(165.957573, 108.455448)"><g><path d="M 8.453125 0.332031 C 12.976562 0.332031 15.996094 -2.800781 15.996094 -7.503906 C 15.996094 -12.203125 12.976562 -15.335938 8.453125 -15.335938 C 3.929688 -15.335938 0.90625 -12.203125 0.90625 -7.503906 C 0.90625 -2.800781 3.929688 0.332031 8.453125 0.332031 Z M 8.453125 -0.351562 C 6.730469 -0.351562 5.582031 -3.222656 5.582031 -7.503906 C 5.582031 -11.785156 6.730469 -14.652344 8.453125 -14.652344 C 10.171875 -14.652344 11.320312 -11.785156 11.320312 -7.503906 C 11.320312 -3.222656 10.171875 -0.351562 8.453125 -0.351562 Z M 8.453125 -0.351562 "/></g></g></g><g fill="rgb(0%, 0%, 0%)" fill-opacity="1"><g transform="translate(54.218368, 87.359777)"><g><path d="M 1.484375 -3.828125 C 2.015625 -3.828125 2.421875 -3.722656 2.703125 -3.515625 C 2.992188 -3.316406 3.140625 -3.019531 3.140625 -2.625 C 3.140625 -2.40625 3.097656 -2.21875 3.015625 -2.0625 C 2.941406 -1.90625 2.828125 -1.773438 2.671875 -1.671875 C 2.523438 -1.578125 2.347656 -1.507812 2.140625 -1.46875 C 1.929688 -1.425781 1.691406 -1.40625 1.421875 -1.40625 L 1 -1.40625 L 1 0 L 0.46875 0 L 0.46875 -3.734375 C 0.613281 -3.773438 0.78125 -3.800781 0.96875 -3.8125 C 1.15625 -3.820312 1.328125 -3.828125 1.484375 -3.828125 Z M 1.515625 -3.359375 C 1.296875 -3.359375 1.125 -3.351562 1 -3.34375 L 1 -1.859375 L 1.40625 -1.859375 C 1.582031 -1.859375 1.742188 -1.867188 1.890625 -1.890625 C 2.035156 -1.921875 2.15625 -1.960938 2.25 -2.015625 C 2.351562 -2.066406 2.429688 -2.140625 2.484375 -2.234375 C 2.546875 -2.335938 2.578125 -2.46875 2.578125 -2.625 C 2.578125 -2.769531 2.546875 -2.890625 2.484375 -2.984375 C 2.429688 -3.078125 2.351562 -3.148438 2.25 -3.203125 C 2.15625 -3.265625 2.046875 -3.304688 1.921875 -3.328125 C 1.796875 -3.347656 1.660156 -3.359375 1.515625 -3.359375 Z M 1.515625 -3.359375 "/></g></g></g><g fill="rgb(0%, 0%, 0%)" fill-opacity="1"><g transform="translate(57.54786, 87.359777)"><g><path d="M 2.328125 -1.59375 C 2.378906 -1.519531 2.453125 -1.421875 2.546875 -1.296875 C 2.640625 -1.179688 2.734375 -1.050781 2.828125 -0.90625 C 2.921875 -0.757812 3.015625 -0.609375 3.109375 -0.453125 C 3.203125 -0.296875 3.28125 -0.144531 3.34375 0 L 2.765625 0 C 2.691406 -0.132812 2.609375 -0.273438 2.515625 -0.421875 C 2.429688 -0.566406 2.347656 -0.703125 2.265625 -0.828125 C 2.179688 -0.953125 2.09375 -1.070312 2 -1.1875 C 1.914062 -1.300781 1.835938 -1.398438 1.765625 -1.484375 C 1.722656 -1.484375 1.675781 -1.484375 1.625 -1.484375 C 1.570312 -1.484375 1.523438 -1.484375 1.484375 -1.484375 L 1 -1.484375 L 1 0 L 0.46875 0 L 0.46875 -3.734375 C 0.613281 -3.773438 0.78125 -3.800781 0.96875 -3.8125 C 1.15625 -3.820312 1.328125 -3.828125 1.484375 -3.828125 C 2.015625 -3.828125 2.414062 -3.726562 2.6875 -3.53125 C 2.96875 -3.332031 3.109375 -3.03125 3.109375 -2.625 C 3.109375 -2.375 3.039062 -2.160156 2.90625 -1.984375 C 2.78125 -1.804688 2.585938 -1.675781 2.328125 -1.59375 Z M 1.515625 -3.359375 C 1.296875 -3.359375 1.125 -3.351562 1 -3.34375 L 1 -1.921875 L 1.375 -1.921875 C 1.5625 -1.921875 1.726562 -1.925781 1.875 -1.9375 C 2.019531 -1.957031 2.140625 -1.992188 2.234375 -2.046875 C 2.335938 -2.097656 2.414062 -2.171875 2.46875 -2.265625 C 2.519531 -2.359375 2.546875 -2.484375 2.546875 -2.640625 C 2.546875 -2.773438 2.519531 -2.890625 2.46875 -2.984375 C 2.414062 -3.085938 2.34375 -3.164062 2.25 -3.21875 C 2.15625 -3.269531 2.046875 -3.304688 1.921875 -3.328125 C 1.796875 -3.347656 1.660156 -3.359375 1.515625 -3.359375 Z M 1.515625 -3.359375 "/></g></g></g><g fill="rgb(0%, 0%, 0%)" fill-opacity="1"><g transform="translate(60.99235, 87.359777)"><g><path d="M 0.3125 -1.890625 C 0.3125 -2.222656 0.359375 -2.507812 0.453125 -2.75 C 0.554688 -3 0.691406 -3.207031 0.859375 -3.375 C 1.023438 -3.539062 1.21875 -3.664062 1.4375 -3.75 C 1.65625 -3.832031 1.890625 -3.875 2.140625 -3.875 C 2.378906 -3.875 2.609375 -3.832031 2.828125 -3.75 C 3.046875 -3.664062 3.234375 -3.539062 3.390625 -3.375 C 3.554688 -3.207031 3.6875 -3 3.78125 -2.75 C 3.882812 -2.507812 3.9375 -2.222656 3.9375 -1.890625 C 3.9375 -1.566406 3.882812 -1.28125 3.78125 -1.03125 C 3.6875 -0.789062 3.554688 -0.585938 3.390625 -0.421875 C 3.234375 -0.253906 3.046875 -0.128906 2.828125 -0.046875 C 2.609375 0.0351562 2.378906 0.078125 2.140625 0.078125 C 1.890625 0.078125 1.65625 0.0351562 1.4375 -0.046875 C 1.21875 -0.128906 1.023438 -0.253906 0.859375 -0.421875 C 0.691406 -0.585938 0.554688 -0.789062 0.453125 -1.03125 C 0.359375 -1.28125 0.3125 -1.566406 0.3125 -1.890625 Z M 0.875 -1.890625 C 0.875 -1.660156 0.898438 -1.453125 0.953125 -1.265625 C 1.015625 -1.078125 1.097656 -0.914062 1.203125 -0.78125 C 1.316406 -0.65625 1.453125 -0.554688 1.609375 -0.484375 C 1.765625 -0.421875 1.9375 -0.390625 2.125 -0.390625 C 2.320312 -0.390625 2.492188 -0.421875 2.640625 -0.484375 C 2.796875 -0.554688 2.925781 -0.65625 3.03125 -0.78125 C 3.144531 -0.914062 3.226562 -1.078125 3.28125 -1.265625 C 3.34375 -1.453125 3.375 -1.660156 3.375 -1.890625 C 3.375 -2.128906 3.34375 -2.34375 3.28125 -2.53125 C 3.226562 -2.71875 3.144531 -2.875 3.03125 -3 C 2.925781 -3.132812 2.796875 -3.234375 2.640625 -3.296875 C 2.492188 -3.367188 2.320312 -3.40625 2.125 -3.40625 C 1.9375 -3.40625 1.765625 -3.367188 1.609375 -3.296875 C 1.453125 -3.234375 1.316406 -3.132812 1.203125 -3 C 1.097656 -2.875 1.015625 -2.71875 0.953125 -2.53125 C 0.898438 -2.34375 0.875 -2.128906 0.875 -1.890625 Z M 0.875 -1.890625 "/></g></g></g><g fill="rgb(0%, 0%, 0%)" fill-opacity="1"><g transform="translate(65.252784, 87.359777)"><g><path d="M 0.46875 0 L 0.46875 -3.796875 L 2.75 -3.796875 L 2.75 -3.34375 L 1 -3.34375 L 1 -2.1875 L 2.5625 -2.1875 L 2.5625 -1.75 L 1 -1.75 L 1 0 Z M 0.46875 0 "/></g></g></g><g fill="rgb(0%, 0%, 0%)" fill-opacity="1"><g transform="translate(68.193471, 87.359777)"><g><path d="M 0.46875 0 L 0.46875 -3.796875 L 2.78125 -3.796875 L 2.78125 -3.34375 L 1 -3.34375 L 1 -2.203125 L 2.59375 -2.203125 L 2.59375 -1.765625 L 1 -1.765625 L 1 -0.453125 L 2.921875 -0.453125 L 2.921875 0 Z M 0.46875 0 "/></g></g></g><g fill="rgb(0%, 0%, 0%)" fill-opacity="1"><g transform="translate(71.320348, 87.359777)"><g><path d="M 1.34375 -0.375 C 1.90625 -0.375 2.1875 -0.566406 2.1875 -0.953125 C 2.1875 -1.066406 2.160156 -1.164062 2.109375 -1.25 C 2.054688 -1.332031 1.988281 -1.398438 1.90625 -1.453125 C 1.820312 -1.515625 1.722656 -1.566406 1.609375 -1.609375 C 1.503906 -1.648438 1.394531 -1.695312 1.28125 -1.75 C 1.144531 -1.789062 1.015625 -1.84375 0.890625 -1.90625 C 0.765625 -1.96875 0.65625 -2.039062 0.5625 -2.125 C 0.46875 -2.207031 0.394531 -2.300781 0.34375 -2.40625 C 0.289062 -2.519531 0.265625 -2.660156 0.265625 -2.828125 C 0.265625 -3.148438 0.378906 -3.40625 0.609375 -3.59375 C 0.835938 -3.78125 1.148438 -3.875 1.546875 -3.875 C 1.773438 -3.875 1.984375 -3.847656 2.171875 -3.796875 C 2.359375 -3.753906 2.492188 -3.703125 2.578125 -3.640625 L 2.40625 -3.203125 C 2.332031 -3.253906 2.21875 -3.300781 2.0625 -3.34375 C 1.914062 -3.394531 1.742188 -3.421875 1.546875 -3.421875 C 1.441406 -3.421875 1.34375 -3.410156 1.25 -3.390625 C 1.164062 -3.367188 1.09375 -3.332031 1.03125 -3.28125 C 0.96875 -3.238281 0.914062 -3.179688 0.875 -3.109375 C 0.832031 -3.046875 0.8125 -2.96875 0.8125 -2.875 C 0.8125 -2.78125 0.832031 -2.695312 0.875 -2.625 C 0.914062 -2.550781 0.972656 -2.488281 1.046875 -2.4375 C 1.117188 -2.382812 1.203125 -2.335938 1.296875 -2.296875 C 1.390625 -2.253906 1.5 -2.210938 1.625 -2.171875 C 1.78125 -2.097656 1.925781 -2.03125 2.0625 -1.96875 C 2.207031 -1.90625 2.328125 -1.828125 2.421875 -1.734375 C 2.523438 -1.640625 2.601562 -1.53125 2.65625 -1.40625 C 2.707031 -1.28125 2.734375 -1.128906 2.734375 -0.953125 C 2.734375 -0.617188 2.613281 -0.363281 2.375 -0.1875 C 2.132812 -0.0078125 1.789062 0.078125 1.34375 0.078125 C 1.195312 0.078125 1.0625 0.0664062 0.9375 0.046875 C 0.8125 0.0234375 0.695312 0.00390625 0.59375 -0.015625 C 0.5 -0.046875 0.414062 -0.078125 0.34375 -0.109375 C 0.269531 -0.140625 0.21875 -0.164062 0.1875 -0.1875 L 0.34375 -0.625 C 0.425781 -0.570312 0.550781 -0.515625 0.71875 -0.453125 C 0.894531 -0.398438 1.101562 -0.375 1.34375 -0.375 Z M 1.34375 -0.375 "/></g></g></g><g fill="rgb(0%, 0%, 0%)" fill-opacity="1"><g transform="translate(74.233656, 87.359777)"><g><path d="M 1.34375 -0.375 C 1.90625 -0.375 2.1875 -0.566406 2.1875 -0.953125 C 2.1875 -1.066406 2.160156 -1.164062 2.109375 -1.25 C 2.054688 -1.332031 1.988281 -1.398438 1.90625 -1.453125 C 1.820312 -1.515625 1.722656 -1.566406 1.609375 -1.609375 C 1.503906 -1.648438 1.394531 -1.695312 1.28125 -1.75 C 1.144531 -1.789062 1.015625 -1.84375 0.890625 -1.90625 C 0.765625 -1.96875 0.65625 -2.039062 0.5625 -2.125 C 0.46875 -2.207031 0.394531 -2.300781 0.34375 -2.40625 C 0.289062 -2.519531 0.265625 -2.660156 0.265625 -2.828125 C 0.265625 -3.148438 0.378906 -3.40625 0.609375 -3.59375 C 0.835938 -3.78125 1.148438 -3.875 1.546875 -3.875 C 1.773438 -3.875 1.984375 -3.847656 2.171875 -3.796875 C 2.359375 -3.753906 2.492188 -3.703125 2.578125 -3.640625 L 2.40625 -3.203125 C 2.332031 -3.253906 2.21875 -3.300781 2.0625 -3.34375 C 1.914062 -3.394531 1.742188 -3.421875 1.546875 -3.421875 C 1.441406 -3.421875 1.34375 -3.410156 1.25 -3.390625 C 1.164062 -3.367188 1.09375 -3.332031 1.03125 -3.28125 C 0.96875 -3.238281 0.914062 -3.179688 0.875 -3.109375 C 0.832031 -3.046875 0.8125 -2.96875 0.8125 -2.875 C 0.8125 -2.78125 0.832031 -2.695312 0.875 -2.625 C 0.914062 -2.550781 0.972656 -2.488281 1.046875 -2.4375 C 1.117188 -2.382812 1.203125 -2.335938 1.296875 -2.296875 C 1.390625 -2.253906 1.5 -2.210938 1.625 -2.171875 C 1.78125 -2.097656 1.925781 -2.03125 2.0625 -1.96875 C 2.207031 -1.90625 2.328125 -1.828125 2.421875 -1.734375 C 2.523438 -1.640625 2.601562 -1.53125 2.65625 -1.40625 C 2.707031 -1.28125 2.734375 -1.128906 2.734375 -0.953125 C 2.734375 -0.617188 2.613281 -0.363281 2.375 -0.1875 C 2.132812 -0.0078125 1.789062 0.078125 1.34375 0.078125 C 1.195312 0.078125 1.0625 0.0664062 0.9375 0.046875 C 0.8125 0.0234375 0.695312 0.00390625 0.59375 -0.015625 C 0.5 -0.046875 0.414062 -0.078125 0.34375 -0.109375 C 0.269531 -0.140625 0.21875 -0.164062 0.1875 -0.1875 L 0.34375 -0.625 C 0.425781 -0.570312 0.550781 -0.515625 0.71875 -0.453125 C 0.894531 -0.398438 1.101562 -0.375 1.34375 -0.375 Z M 1.34375 -0.375 "/></g></g></g><g fill="rgb(0%, 0%, 0%)" fill-opacity="1"><g transform="translate(77.146964, 87.359777)"><g><path d="M 0.46875 -3.796875 L 1 -3.796875 L 1 0 L 0.46875 0 Z M 0.46875 -3.796875 "/></g></g></g><g fill="rgb(0%, 0%, 0%)" fill-opacity="1"><g transform="translate(78.620047, 87.359777)"><g><path d="M 0.3125 -1.890625 C 0.3125 -2.222656 0.359375 -2.507812 0.453125 -2.75 C 0.554688 -3 0.691406 -3.207031 0.859375 -3.375 C 1.023438 -3.539062 1.21875 -3.664062 1.4375 -3.75 C 1.65625 -3.832031 1.890625 -3.875 2.140625 -3.875 C 2.378906 -3.875 2.609375 -3.832031 2.828125 -3.75 C 3.046875 -3.664062 3.234375 -3.539062 3.390625 -3.375 C 3.554688 -3.207031 3.6875 -3 3.78125 -2.75 C 3.882812 -2.507812 3.9375 -2.222656 3.9375 -1.890625 C 3.9375 -1.566406 3.882812 -1.28125 3.78125 -1.03125 C 3.6875 -0.789062 3.554688 -0.585938 3.390625 -0.421875 C 3.234375 -0.253906 3.046875 -0.128906 2.828125 -0.046875 C 2.609375 0.0351562 2.378906 0.078125 2.140625 0.078125 C 1.890625 0.078125 1.65625 0.0351562 1.4375 -0.046875 C 1.21875 -0.128906 1.023438 -0.253906 0.859375 -0.421875 C 0.691406 -0.585938 0.554688 -0.789062 0.453125 -1.03125 C 0.359375 -1.28125 0.3125 -1.566406 0.3125 -1.890625 Z M 0.875 -1.890625 C 0.875 -1.660156 0.898438 -1.453125 0.953125 -1.265625 C 1.015625 -1.078125 1.097656 -0.914062 1.203125 -0.78125 C 1.316406 -0.65625 1.453125 -0.554688 1.609375 -0.484375 C 1.765625 -0.421875 1.9375 -0.390625 2.125 -0.390625 C 2.320312 -0.390625 2.492188 -0.421875 2.640625 -0.484375 C 2.796875 -0.554688 2.925781 -0.65625 3.03125 -0.78125 C 3.144531 -0.914062 3.226562 -1.078125 3.28125 -1.265625 C 3.34375 -1.453125 3.375 -1.660156 3.375 -1.890625 C 3.375 -2.128906 3.34375 -2.34375 3.28125 -2.53125 C 3.226562 -2.71875 3.144531 -2.875 3.03125 -3 C 2.925781 -3.132812 2.796875 -3.234375 2.640625 -3.296875 C 2.492188 -3.367188 2.320312 -3.40625 2.125 -3.40625 C 1.9375 -3.40625 1.765625 -3.367188 1.609375 -3.296875 C 1.453125 -3.234375 1.316406 -3.132812 1.203125 -3 C 1.097656 -2.875 1.015625 -2.71875 0.953125 -2.53125 C 0.898438 -2.34375 0.875 -2.128906 0.875 -1.890625 Z M 0.875 -1.890625 "/></g></g></g><g fill="rgb(0%, 0%, 0%)" fill-opacity="1"><g transform="translate(82.880481, 87.359777)"><g><path d="M 3.0625 0 C 2.988281 -0.132812 2.898438 -0.285156 2.796875 -0.453125 C 2.691406 -0.617188 2.578125 -0.789062 2.453125 -0.96875 C 2.335938 -1.15625 2.210938 -1.34375 2.078125 -1.53125 C 1.953125 -1.71875 1.820312 -1.894531 1.6875 -2.0625 C 1.5625 -2.238281 1.4375 -2.398438 1.3125 -2.546875 C 1.195312 -2.703125 1.085938 -2.835938 0.984375 -2.953125 L 0.984375 0 L 0.46875 0 L 0.46875 -3.796875 L 0.890625 -3.796875 C 1.066406 -3.609375 1.25 -3.394531 1.4375 -3.15625 C 1.632812 -2.914062 1.828125 -2.664062 2.015625 -2.40625 C 2.210938 -2.144531 2.394531 -1.890625 2.5625 -1.640625 C 2.726562 -1.398438 2.867188 -1.179688 2.984375 -0.984375 L 2.984375 -3.796875 L 3.515625 -3.796875 L 3.515625 0 Z M 3.0625 0 "/></g></g></g><g fill="rgb(0%, 0%, 0%)" fill-opacity="1"><g transform="translate(86.867114, 87.359777)"><g><path d="M 3 0 C 2.9375 -0.164062 2.878906 -0.328125 2.828125 -0.484375 C 2.773438 -0.640625 2.71875 -0.800781 2.65625 -0.96875 L 0.9375 -0.96875 L 0.59375 0 L 0.046875 0 C 0.191406 -0.40625 0.328125 -0.773438 0.453125 -1.109375 C 0.578125 -1.453125 0.703125 -1.773438 0.828125 -2.078125 C 0.953125 -2.390625 1.070312 -2.679688 1.1875 -2.953125 C 1.3125 -3.234375 1.4375 -3.515625 1.5625 -3.796875 L 2.0625 -3.796875 C 2.1875 -3.515625 2.304688 -3.234375 2.421875 -2.953125 C 2.546875 -2.679688 2.671875 -2.390625 2.796875 -2.078125 C 2.921875 -1.773438 3.046875 -1.453125 3.171875 -1.109375 C 3.296875 -0.773438 3.429688 -0.40625 3.578125 0 Z M 2.5 -1.40625 C 2.382812 -1.71875 2.269531 -2.019531 2.15625 -2.3125 C 2.039062 -2.613281 1.921875 -2.90625 1.796875 -3.1875 C 1.671875 -2.90625 1.550781 -2.613281 1.4375 -2.3125 C 1.320312 -2.019531 1.207031 -1.71875 1.09375 -1.40625 Z M 2.5 -1.40625 "/></g></g></g><g fill="rgb(0%, 0%, 0%)" fill-opacity="1"><g transform="translate(90.497793, 87.359777)"><g><path d="M 2.75 -0.453125 L 2.75 0 L 0.46875 0 L 0.46875 -3.796875 L 1 -3.796875 L 1 -0.453125 Z M 2.75 -0.453125 "/></g></g></g><g fill="rgb(0%, 0%, 0%)" fill-opacity="1"><g transform="translate(93.339909, 87.359777)"><g/></g></g><g fill="rgb(0%, 0%, 0%)" fill-opacity="1"><g transform="translate(94.604897, 87.359777)"><g><path d="M 3 -3.796875 L 3 -3.328125 L 1.8125 -3.328125 L 1.8125 0 L 1.28125 0 L 1.28125 -3.328125 L 0.09375 -3.328125 L 0.09375 -3.796875 Z M 3 -3.796875 "/></g></g></g><g fill="rgb(0%, 0%, 0%)" fill-opacity="1"><g transform="translate(97.698914, 87.359777)"><g><path d="M 3 0 C 2.9375 -0.164062 2.878906 -0.328125 2.828125 -0.484375 C 2.773438 -0.640625 2.71875 -0.800781 2.65625 -0.96875 L 0.9375 -0.96875 L 0.59375 0 L 0.046875 0 C 0.191406 -0.40625 0.328125 -0.773438 0.453125 -1.109375 C 0.578125 -1.453125 0.703125 -1.773438 0.828125 -2.078125 C 0.953125 -2.390625 1.070312 -2.679688 1.1875 -2.953125 C 1.3125 -3.234375 1.4375 -3.515625 1.5625 -3.796875 L 2.0625 -3.796875 C 2.1875 -3.515625 2.304688 -3.234375 2.421875 -2.953125 C 2.546875 -2.679688 2.671875 -2.390625 2.796875 -2.078125 C 2.921875 -1.773438 3.046875 -1.453125 3.171875 -1.109375 C 3.296875 -0.773438 3.429688 -0.40625 3.578125 0 Z M 2.5 -1.40625 C 2.382812 -1.71875 2.269531 -2.019531 2.15625 -2.3125 C 2.039062 -2.613281 1.921875 -2.90625 1.796875 -3.1875 C 1.671875 -2.90625 1.550781 -2.613281 1.4375 -2.3125 C 1.320312 -2.019531 1.207031 -1.71875 1.09375 -1.40625 Z M 2.5 -1.40625 "/></g></g></g><g fill="rgb(0%, 0%, 0%)" fill-opacity="1"><g transform="translate(101.329594, 87.359777)"><g><path d="M 3 -3.796875 L 3 -3.328125 L 1.8125 -3.328125 L 1.8125 0 L 1.28125 0 L 1.28125 -3.328125 L 0.09375 -3.328125 L 0.09375 -3.796875 Z M 3 -3.796875 "/></g></g></g><g fill="rgb(0%, 0%, 0%)" fill-opacity="1"><g transform="translate(104.423611, 87.359777)"><g><path d="M 3 -3.796875 L 3 -3.328125 L 1.8125 -3.328125 L 1.8125 0 L 1.28125 0 L 1.28125 -3.328125 L 0.09375 -3.328125 L 0.09375 -3.796875 Z M 3 -3.796875 "/></g></g></g><g fill="rgb(0%, 0%, 0%)" fill-opacity="1"><g transform="translate(107.517629, 87.359777)"><g><path d="M 0.3125 -1.890625 C 0.3125 -2.222656 0.359375 -2.507812 0.453125 -2.75 C 0.554688 -3 0.691406 -3.207031 0.859375 -3.375 C 1.023438 -3.539062 1.21875 -3.664062 1.4375 -3.75 C 1.65625 -3.832031 1.890625 -3.875 2.140625 -3.875 C 2.378906 -3.875 2.609375 -3.832031 2.828125 -3.75 C 3.046875 -3.664062 3.234375 -3.539062 3.390625 -3.375 C 3.554688 -3.207031 3.6875 -3 3.78125 -2.75 C 3.882812 -2.507812 3.9375 -2.222656 3.9375 -1.890625 C 3.9375 -1.566406 3.882812 -1.28125 3.78125 -1.03125 C 3.6875 -0.789062 3.554688 -0.585938 3.390625 -0.421875 C 3.234375 -0.253906 3.046875 -0.128906 2.828125 -0.046875 C 2.609375 0.0351562 2.378906 0.078125 2.140625 0.078125 C 1.890625 0.078125 1.65625 0.0351562 1.4375 -0.046875 C 1.21875 -0.128906 1.023438 -0.253906 0.859375 -0.421875 C 0.691406 -0.585938 0.554688 -0.789062 0.453125 -1.03125 C 0.359375 -1.28125 0.3125 -1.566406 0.3125 -1.890625 Z M 0.875 -1.890625 C 0.875 -1.660156 0.898438 -1.453125 0.953125 -1.265625 C 1.015625 -1.078125 1.097656 -0.914062 1.203125 -0.78125 C 1.316406 -0.65625 1.453125 -0.554688 1.609375 -0.484375 C 1.765625 -0.421875 1.9375 -0.390625 2.125 -0.390625 C 2.320312 -0.390625 2.492188 -0.421875 2.640625 -0.484375 C 2.796875 -0.554688 2.925781 -0.65625 3.03125 -0.78125 C 3.144531 -0.914062 3.226562 -1.078125 3.28125 -1.265625 C 3.34375 -1.453125 3.375 -1.660156 3.375 -1.890625 C 3.375 -2.128906 3.34375 -2.34375 3.28125 -2.53125 C 3.226562 -2.71875 3.144531 -2.875 3.03125 -3 C 2.925781 -3.132812 2.796875 -3.234375 2.640625 -3.296875 C 2.492188 -3.367188 2.320312 -3.40625 2.125 -3.40625 C 1.9375 -3.40625 1.765625 -3.367188 1.609375 -3.296875 C 1.453125 -3.234375 1.316406 -3.132812 1.203125 -3 C 1.097656 -2.875 1.015625 -2.71875 0.953125 -2.53125 C 0.898438 -2.34375 0.875 -2.128906 0.875 -1.890625 Z M 0.875 -1.890625 "/></g></g></g><g fill="rgb(0%, 0%, 0%)" fill-opacity="1"><g transform="translate(111.778062, 87.359777)"><g><path d="M 0.3125 -1.890625 C 0.3125 -2.222656 0.359375 -2.507812 0.453125 -2.75 C 0.554688 -3 0.691406 -3.207031 0.859375 -3.375 C 1.023438 -3.539062 1.21875 -3.664062 1.4375 -3.75 C 1.65625 -3.832031 1.890625 -3.875 2.140625 -3.875 C 2.378906 -3.875 2.609375 -3.832031 2.828125 -3.75 C 3.046875 -3.664062 3.234375 -3.539062 3.390625 -3.375 C 3.554688 -3.207031 3.6875 -3 3.78125 -2.75 C 3.882812 -2.507812 3.9375 -2.222656 3.9375 -1.890625 C 3.9375 -1.566406 3.882812 -1.28125 3.78125 -1.03125 C 3.6875 -0.789062 3.554688 -0.585938 3.390625 -0.421875 C 3.234375 -0.253906 3.046875 -0.128906 2.828125 -0.046875 C 2.609375 0.0351562 2.378906 0.078125 2.140625 0.078125 C 1.890625 0.078125 1.65625 0.0351562 1.4375 -0.046875 C 1.21875 -0.128906 1.023438 -0.253906 0.859375 -0.421875 C 0.691406 -0.585938 0.554688 -0.789062 0.453125 -1.03125 C 0.359375 -1.28125 0.3125 -1.566406 0.3125 -1.890625 Z M 0.875 -1.890625 C 0.875 -1.660156 0.898438 -1.453125 0.953125 -1.265625 C 1.015625 -1.078125 1.097656 -0.914062 1.203125 -0.78125 C 1.316406 -0.65625 1.453125 -0.554688 1.609375 -0.484375 C 1.765625 -0.421875 1.9375 -0.390625 2.125 -0.390625 C 2.320312 -0.390625 2.492188 -0.421875 2.640625 -0.484375 C 2.796875 -0.554688 2.925781 -0.65625 3.03125 -0.78125 C 3.144531 -0.914062 3.226562 -1.078125 3.28125 -1.265625 C 3.34375 -1.453125 3.375 -1.660156 3.375 -1.890625 C 3.375 -2.128906 3.34375 -2.34375 3.28125 -2.53125 C 3.226562 -2.71875 3.144531 -2.875 3.03125 -3 C 2.925781 -3.132812 2.796875 -3.234375 2.640625 -3.296875 C 2.492188 -3.367188 2.320312 -3.40625 2.125 -3.40625 C 1.9375 -3.40625 1.765625 -3.367188 1.609375 -3.296875 C 1.453125 -3.234375 1.316406 -3.132812 1.203125 -3 C 1.097656 -2.875 1.015625 -2.71875 0.953125 -2.53125 C 0.898438 -2.34375 0.875 -2.128906 0.875 -1.890625 Z M 0.875 -1.890625 "/></g></g></g><g fill="rgb(0%, 0%, 0%)" fill-opacity="1"><g transform="translate(116.038496, 87.359777)"><g/></g></g><g fill="rgb(0%, 0%, 0%)" fill-opacity="1"><g transform="translate(117.303484, 87.359777)"><g><path d="M 3 0 C 2.9375 -0.164062 2.878906 -0.328125 2.828125 -0.484375 C 2.773438 -0.640625 2.71875 -0.800781 2.65625 -0.96875 L 0.9375 -0.96875 L 0.59375 0 L 0.046875 0 C 0.191406 -0.40625 0.328125 -0.773438 0.453125 -1.109375 C 0.578125 -1.453125 0.703125 -1.773438 0.828125 -2.078125 C 0.953125 -2.390625 1.070312 -2.679688 1.1875 -2.953125 C 1.3125 -3.234375 1.4375 -3.515625 1.5625 -3.796875 L 2.0625 -3.796875 C 2.1875 -3.515625 2.304688 -3.234375 2.421875 -2.953125 C 2.546875 -2.679688 2.671875 -2.390625 2.796875 -2.078125 C 2.921875 -1.773438 3.046875 -1.453125 3.171875 -1.109375 C 3.296875 -0.773438 3.429688 -0.40625 3.578125 0 Z M 2.5 -1.40625 C 2.382812 -1.71875 2.269531 -2.019531 2.15625 -2.3125 C 2.039062 -2.613281 1.921875 -2.90625 1.796875 -3.1875 C 1.671875 -2.90625 1.550781 -2.613281 1.4375 -2.3125 C 1.320312 -2.019531 1.207031 -1.71875 1.09375 -1.40625 Z M 2.5 -1.40625 "/></g></g></g><g fill="rgb(0%, 0%, 0%)" fill-opacity="1"><g transform="translate(120.934163, 87.359777)"><g><path d="M 2.328125 -1.59375 C 2.378906 -1.519531 2.453125 -1.421875 2.546875 -1.296875 C 2.640625 -1.179688 2.734375 -1.050781 2.828125 -0.90625 C 2.921875 -0.757812 3.015625 -0.609375 3.109375 -0.453125 C 3.203125 -0.296875 3.28125 -0.144531 3.34375 0 L 2.765625 0 C 2.691406 -0.132812 2.609375 -0.273438 2.515625 -0.421875 C 2.429688 -0.566406 2.347656 -0.703125 2.265625 -0.828125 C 2.179688 -0.953125 2.09375 -1.070312 2 -1.1875 C 1.914062 -1.300781 1.835938 -1.398438 1.765625 -1.484375 C 1.722656 -1.484375 1.675781 -1.484375 1.625 -1.484375 C 1.570312 -1.484375 1.523438 -1.484375 1.484375 -1.484375 L 1 -1.484375 L 1 0 L 0.46875 0 L 0.46875 -3.734375 C 0.613281 -3.773438 0.78125 -3.800781 0.96875 -3.8125 C 1.15625 -3.820312 1.328125 -3.828125 1.484375 -3.828125 C 2.015625 -3.828125 2.414062 -3.726562 2.6875 -3.53125 C 2.96875 -3.332031 3.109375 -3.03125 3.109375 -2.625 C 3.109375 -2.375 3.039062 -2.160156 2.90625 -1.984375 C 2.78125 -1.804688 2.585938 -1.675781 2.328125 -1.59375 Z M 1.515625 -3.359375 C 1.296875 -3.359375 1.125 -3.351562 1 -3.34375 L 1 -1.921875 L 1.375 -1.921875 C 1.5625 -1.921875 1.726562 -1.925781 1.875 -1.9375 C 2.019531 -1.957031 2.140625 -1.992188 2.234375 -2.046875 C 2.335938 -2.097656 2.414062 -2.171875 2.46875 -2.265625 C 2.519531 -2.359375 2.546875 -2.484375 2.546875 -2.640625 C 2.546875 -2.773438 2.519531 -2.890625 2.46875 -2.984375 C 2.414062 -3.085938 2.34375 -3.164062 2.25 -3.21875 C 2.15625 -3.269531 2.046875 -3.304688 1.921875 -3.328125 C 1.796875 -3.347656 1.660156 -3.359375 1.515625 -3.359375 Z M 1.515625 -3.359375 "/></g></g></g><g fill="rgb(0%, 0%, 0%)" fill-opacity="1"><g transform="translate(124.378654, 87.359777)"><g><path d="M 3 -3.796875 L 3 -3.328125 L 1.8125 -3.328125 L 1.8125 0 L 1.28125 0 L 1.28125 -3.328125 L 0.09375 -3.328125 L 0.09375 -3.796875 Z M 3 -3.796875 "/></g></g></g><g fill="rgb(0%, 0%, 0%)" fill-opacity="1"><g transform="translate(127.472671, 87.359777)"><g><path d="M 0.46875 -3.796875 L 1 -3.796875 L 1 0 L 0.46875 0 Z M 0.46875 -3.796875 "/></g></g></g><g fill="rgb(0%, 0%, 0%)" fill-opacity="1"><g transform="translate(128.945755, 87.359777)"><g><path d="M 1.34375 -0.375 C 1.90625 -0.375 2.1875 -0.566406 2.1875 -0.953125 C 2.1875 -1.066406 2.160156 -1.164062 2.109375 -1.25 C 2.054688 -1.332031 1.988281 -1.398438 1.90625 -1.453125 C 1.820312 -1.515625 1.722656 -1.566406 1.609375 -1.609375 C 1.503906 -1.648438 1.394531 -1.695312 1.28125 -1.75 C 1.144531 -1.789062 1.015625 -1.84375 0.890625 -1.90625 C 0.765625 -1.96875 0.65625 -2.039062 0.5625 -2.125 C 0.46875 -2.207031 0.394531 -2.300781 0.34375 -2.40625 C 0.289062 -2.519531 0.265625 -2.660156 0.265625 -2.828125 C 0.265625 -3.148438 0.378906 -3.40625 0.609375 -3.59375 C 0.835938 -3.78125 1.148438 -3.875 1.546875 -3.875 C 1.773438 -3.875 1.984375 -3.847656 2.171875 -3.796875 C 2.359375 -3.753906 2.492188 -3.703125 2.578125 -3.640625 L 2.40625 -3.203125 C 2.332031 -3.253906 2.21875 -3.300781 2.0625 -3.34375 C 1.914062 -3.394531 1.742188 -3.421875 1.546875 -3.421875 C 1.441406 -3.421875 1.34375 -3.410156 1.25 -3.390625 C 1.164062 -3.367188 1.09375 -3.332031 1.03125 -3.28125 C 0.96875 -3.238281 0.914062 -3.179688 0.875 -3.109375 C 0.832031 -3.046875 0.8125 -2.96875 0.8125 -2.875 C 0.8125 -2.78125 0.832031 -2.695312 0.875 -2.625 C 0.914062 -2.550781 0.972656 -2.488281 1.046875 -2.4375 C 1.117188 -2.382812 1.203125 -2.335938 1.296875 -2.296875 C 1.390625 -2.253906 1.5 -2.210938 1.625 -2.171875 C 1.78125 -2.097656 1.925781 -2.03125 2.0625 -1.96875 C 2.207031 -1.90625 2.328125 -1.828125 2.421875 -1.734375 C 2.523438 -1.640625 2.601562 -1.53125 2.65625 -1.40625 C 2.707031 -1.28125 2.734375 -1.128906 2.734375 -0.953125 C 2.734375 -0.617188 2.613281 -0.363281 2.375 -0.1875 C 2.132812 -0.0078125 1.789062 0.078125 1.34375 0.078125 C 1.195312 0.078125 1.0625 0.0664062 0.9375 0.046875 C 0.8125 0.0234375 0.695312 0.00390625 0.59375 -0.015625 C 0.5 -0.046875 0.414062 -0.078125 0.34375 -0.109375 C 0.269531 -0.140625 0.21875 -0.164062 0.1875 -0.1875 L 0.34375 -0.625 C 0.425781 -0.570312 0.550781 -0.515625 0.71875 -0.453125 C 0.894531 -0.398438 1.101562 -0.375 1.34375 -0.375 Z M 1.34375 -0.375 "/></g></g></g><g fill="rgb(0%, 0%, 0%)" fill-opacity="1"><g transform="translate(131.859062, 87.359777)"><g><path d="M 3 -3.796875 L 3 -3.328125 L 1.8125 -3.328125 L 1.8125 0 L 1.28125 0 L 1.28125 -3.328125 L 0.09375 -3.328125 L 0.09375 -3.796875 Z M 3 -3.796875 "/></g></g></g><g fill="rgb(0%, 0%, 0%)" fill-opacity="1"><g transform="translate(65.808565, 123.612564)"><g><path d="M 4.78125 -0.296875 C 4.632812 -0.296875 4.515625 -0.316406 4.421875 -0.359375 C 4.328125 -0.398438 4.242188 -0.457031 4.171875 -0.53125 C 4.078125 -0.46875 3.957031 -0.414062 3.8125 -0.375 C 3.664062 -0.34375 3.519531 -0.328125 3.375 -0.328125 C 3.15625 -0.328125 2.953125 -0.359375 2.765625 -0.421875 C 2.585938 -0.492188 2.429688 -0.597656 2.296875 -0.734375 C 2.160156 -0.867188 2.054688 -1.035156 1.984375 -1.234375 C 1.910156 -1.441406 1.875 -1.675781 1.875 -1.9375 C 1.875 -2.15625 1.90625 -2.363281 1.96875 -2.5625 C 2.039062 -2.757812 2.144531 -2.929688 2.28125 -3.078125 C 2.414062 -3.222656 2.582031 -3.335938 2.78125 -3.421875 C 2.976562 -3.503906 3.203125 -3.546875 3.453125 -3.546875 C 3.691406 -3.546875 3.90625 -3.523438 4.09375 -3.484375 C 4.289062 -3.453125 4.445312 -3.414062 4.5625 -3.375 L 4.5625 -1.25 C 4.5625 -1.101562 4.582031 -1 4.625 -0.9375 C 4.675781 -0.882812 4.742188 -0.859375 4.828125 -0.859375 C 4.953125 -0.859375 5.054688 -0.898438 5.140625 -0.984375 C 5.234375 -1.066406 5.304688 -1.171875 5.359375 -1.296875 C 5.421875 -1.429688 5.46875 -1.582031 5.5 -1.75 C 5.53125 -1.925781 5.546875 -2.101562 5.546875 -2.28125 C 5.546875 -2.570312 5.492188 -2.84375 5.390625 -3.09375 C 5.285156 -3.351562 5.140625 -3.578125 4.953125 -3.765625 C 4.765625 -3.960938 4.535156 -4.113281 4.265625 -4.21875 C 3.992188 -4.332031 3.6875 -4.390625 3.34375 -4.390625 C 3.007812 -4.390625 2.703125 -4.332031 2.421875 -4.21875 C 2.140625 -4.113281 1.894531 -3.953125 1.6875 -3.734375 C 1.488281 -3.523438 1.332031 -3.269531 1.21875 -2.96875 C 1.101562 -2.664062 1.046875 -2.316406 1.046875 -1.921875 C 1.046875 -1.515625 1.101562 -1.15625 1.21875 -0.84375 C 1.34375 -0.539062 1.507812 -0.285156 1.71875 -0.078125 C 1.9375 0.117188 2.191406 0.269531 2.484375 0.375 C 2.785156 0.476562 3.113281 0.53125 3.46875 0.53125 C 3.738281 0.53125 3.960938 0.515625 4.140625 0.484375 C 4.316406 0.453125 4.429688 0.425781 4.484375 0.40625 L 4.546875 0.921875 C 4.472656 0.953125 4.332031 0.984375 4.125 1.015625 C 3.914062 1.046875 3.695312 1.0625 3.46875 1.0625 C 3.050781 1.0625 2.660156 1 2.296875 0.875 C 1.929688 0.757812 1.609375 0.582031 1.328125 0.34375 C 1.054688 0.101562 0.84375 -0.203125 0.6875 -0.578125 C 0.53125 -0.960938 0.453125 -1.410156 0.453125 -1.921875 C 0.453125 -2.421875 0.53125 -2.859375 0.6875 -3.234375 C 0.84375 -3.609375 1.050781 -3.921875 1.3125 -4.171875 C 1.582031 -4.421875 1.890625 -4.609375 2.234375 -4.734375 C 2.585938 -4.859375 2.957031 -4.921875 3.34375 -4.921875 C 3.726562 -4.921875 4.085938 -4.859375 4.421875 -4.734375 C 4.765625 -4.609375 5.0625 -4.425781 5.3125 -4.1875 C 5.570312 -3.957031 5.773438 -3.675781 5.921875 -3.34375 C 6.066406 -3.019531 6.140625 -2.648438 6.140625 -2.234375 C 6.140625 -1.921875 6.101562 -1.644531 6.03125 -1.40625 C 5.957031 -1.164062 5.859375 -0.960938 5.734375 -0.796875 C 5.617188 -0.628906 5.476562 -0.503906 5.3125 -0.421875 C 5.144531 -0.335938 4.96875 -0.296875 4.78125 -0.296875 Z M 3.40625 -0.859375 C 3.5 -0.859375 3.59375 -0.867188 3.6875 -0.890625 C 3.789062 -0.910156 3.882812 -0.941406 3.96875 -0.984375 C 3.945312 -1.046875 3.929688 -1.101562 3.921875 -1.15625 C 3.921875 -1.21875 3.921875 -1.28125 3.921875 -1.34375 L 3.921875 -2.96875 C 3.898438 -2.976562 3.847656 -2.988281 3.765625 -3 C 3.691406 -3.007812 3.601562 -3.015625 3.5 -3.015625 C 3.175781 -3.015625 2.929688 -2.910156 2.765625 -2.703125 C 2.609375 -2.503906 2.53125 -2.25 2.53125 -1.9375 C 2.53125 -1.601562 2.609375 -1.335938 2.765625 -1.140625 C 2.921875 -0.953125 3.132812 -0.859375 3.40625 -0.859375 Z M 3.40625 -0.859375 "/></g></g></g><g fill="rgb(0%, 0%, 0%)" fill-opacity="1"><g transform="translate(72.40654, 123.612564)"><g><path d="M 2.75 -0.671875 C 2.707031 -0.773438 2.644531 -0.910156 2.5625 -1.078125 C 2.488281 -1.253906 2.40625 -1.441406 2.3125 -1.640625 C 2.226562 -1.835938 2.132812 -2.039062 2.03125 -2.25 C 1.9375 -2.46875 1.84375 -2.671875 1.75 -2.859375 C 1.664062 -3.046875 1.585938 -3.210938 1.515625 -3.359375 C 1.441406 -3.503906 1.378906 -3.617188 1.328125 -3.703125 C 1.273438 -3.148438 1.234375 -2.554688 1.203125 -1.921875 C 1.171875 -1.285156 1.144531 -0.644531 1.125 0 L 0.46875 0 C 0.488281 -0.414062 0.507812 -0.832031 0.53125 -1.25 C 0.550781 -1.675781 0.578125 -2.09375 0.609375 -2.5 C 0.640625 -2.914062 0.671875 -3.316406 0.703125 -3.703125 C 0.734375 -4.085938 0.769531 -4.457031 0.8125 -4.8125 L 1.40625 -4.8125 C 1.53125 -4.601562 1.664062 -4.359375 1.8125 -4.078125 C 1.957031 -3.804688 2.097656 -3.519531 2.234375 -3.21875 C 2.378906 -2.914062 2.519531 -2.613281 2.65625 -2.3125 C 2.789062 -2.007812 2.914062 -1.734375 3.03125 -1.484375 C 3.132812 -1.734375 3.253906 -2.007812 3.390625 -2.3125 C 3.523438 -2.613281 3.664062 -2.914062 3.8125 -3.21875 C 3.957031 -3.519531 4.097656 -3.804688 4.234375 -4.078125 C 4.378906 -4.359375 4.515625 -4.601562 4.640625 -4.8125 L 5.234375 -4.8125 C 5.390625 -3.257812 5.503906 -1.65625 5.578125 0 L 4.921875 0 C 4.898438 -0.644531 4.875 -1.285156 4.84375 -1.921875 C 4.8125 -2.554688 4.769531 -3.148438 4.71875 -3.703125 C 4.664062 -3.617188 4.601562 -3.503906 4.53125 -3.359375 C 4.457031 -3.210938 4.375 -3.046875 4.28125 -2.859375 C 4.195312 -2.671875 4.101562 -2.46875 4 -2.25 C 3.90625 -2.039062 3.8125 -1.835938 3.71875 -1.640625 C 3.632812 -1.441406 3.550781 -1.253906 3.46875 -1.078125 C 3.394531 -0.910156 3.335938 -0.773438 3.296875 -0.671875 Z M 2.75 -0.671875 "/></g></g></g><g fill="rgb(0%, 0%, 0%)" fill-opacity="1"><g transform="translate(78.455838, 123.612564)"><g><path d="M 4.546875 -2.40625 C 4.546875 -1.988281 4.476562 -1.625 4.34375 -1.3125 C 4.21875 -1.007812 4.035156 -0.753906 3.796875 -0.546875 C 3.566406 -0.347656 3.285156 -0.195312 2.953125 -0.09375 C 2.628906 0 2.269531 0.046875 1.875 0.046875 C 1.675781 0.046875 1.457031 0.0351562 1.21875 0.015625 C 0.988281 0.00390625 0.78125 -0.0234375 0.59375 -0.078125 L 0.59375 -4.734375 C 0.78125 -4.785156 0.988281 -4.816406 1.21875 -4.828125 C 1.457031 -4.847656 1.675781 -4.859375 1.875 -4.859375 C 2.269531 -4.859375 2.628906 -4.804688 2.953125 -4.703125 C 3.285156 -4.609375 3.566406 -4.457031 3.796875 -4.25 C 4.035156 -4.050781 4.21875 -3.796875 4.34375 -3.484375 C 4.476562 -3.179688 4.546875 -2.820312 4.546875 -2.40625 Z M 1.921875 -0.546875 C 2.566406 -0.546875 3.046875 -0.707031 3.359375 -1.03125 C 3.671875 -1.363281 3.828125 -1.820312 3.828125 -2.40625 C 3.828125 -2.988281 3.671875 -3.441406 3.359375 -3.765625 C 3.046875 -4.097656 2.566406 -4.265625 1.921875 -4.265625 C 1.734375 -4.265625 1.585938 -4.257812 1.484375 -4.25 C 1.378906 -4.25 1.304688 -4.25 1.265625 -4.25 L 1.265625 -0.5625 C 1.304688 -0.5625 1.378906 -0.554688 1.484375 -0.546875 C 1.585938 -0.546875 1.734375 -0.546875 1.921875 -0.546875 Z M 1.921875 -0.546875 "/></g></g></g><g fill="rgb(0%, 0%, 0%)" fill-opacity="1"><g transform="translate(83.407789, 123.612564)"><g><path d="M 0.59375 -4.8125 L 1.265625 -4.8125 L 1.265625 0 L 0.59375 0 Z M 0.59375 -4.8125 "/></g></g></g><g fill="rgb(0%, 0%, 0%)" fill-opacity="1"><g transform="translate(85.27606, 123.612564)"><g><path d="M 3.890625 0 C 3.785156 -0.164062 3.664062 -0.351562 3.53125 -0.5625 C 3.40625 -0.78125 3.265625 -1.003906 3.109375 -1.234375 C 2.960938 -1.460938 2.804688 -1.695312 2.640625 -1.9375 C 2.472656 -2.175781 2.304688 -2.40625 2.140625 -2.625 C 1.984375 -2.84375 1.828125 -3.046875 1.671875 -3.234375 C 1.523438 -3.429688 1.382812 -3.601562 1.25 -3.75 L 1.25 0 L 0.59375 0 L 0.59375 -4.8125 L 1.125 -4.8125 C 1.34375 -4.570312 1.578125 -4.296875 1.828125 -3.984375 C 2.078125 -3.679688 2.320312 -3.367188 2.5625 -3.046875 C 2.800781 -2.722656 3.03125 -2.398438 3.25 -2.078125 C 3.46875 -1.765625 3.648438 -1.488281 3.796875 -1.25 L 3.796875 -4.8125 L 4.453125 -4.8125 L 4.453125 0 Z M 3.890625 0 "/></g></g></g><g fill="rgb(0%, 0%, 0%)" fill-opacity="1"><g transform="translate(90.332194, 123.612564)"><g><path d="M 0.59375 -4.8125 L 1.265625 -4.8125 L 1.265625 0 L 0.59375 0 Z M 0.59375 -4.8125 "/></g></g></g><g fill="rgb(0%, 0%, 0%)" fill-opacity="1"><g transform="translate(92.200464, 123.612564)"><g><path d="M 3.65625 -4.28125 C 3.539062 -4.15625 3.410156 -4.007812 3.265625 -3.84375 C 3.128906 -3.675781 2.984375 -3.488281 2.828125 -3.28125 C 2.671875 -3.070312 2.507812 -2.851562 2.34375 -2.625 C 2.175781 -2.394531 2.007812 -2.160156 1.84375 -1.921875 C 1.6875 -1.691406 1.535156 -1.460938 1.390625 -1.234375 C 1.253906 -1.003906 1.128906 -0.785156 1.015625 -0.578125 L 3.71875 -0.578125 L 3.71875 0 L 0.234375 0 L 0.234375 -0.453125 C 0.328125 -0.640625 0.4375 -0.84375 0.5625 -1.0625 C 0.695312 -1.28125 0.835938 -1.503906 0.984375 -1.734375 C 1.140625 -1.972656 1.296875 -2.207031 1.453125 -2.4375 C 1.617188 -2.675781 1.78125 -2.90625 1.9375 -3.125 C 2.101562 -3.34375 2.257812 -3.546875 2.40625 -3.734375 C 2.5625 -3.921875 2.703125 -4.085938 2.828125 -4.234375 L 0.359375 -4.234375 L 0.359375 -4.8125 L 3.65625 -4.8125 Z M 3.65625 -4.28125 "/></g></g></g><g fill="rgb(0%, 0%, 0%)" fill-opacity="1"><g transform="translate(96.180086, 123.612564)"><g><path d="M 3.8125 -4.8125 L 3.8125 -4.21875 L 2.296875 -4.21875 L 2.296875 0 L 1.625 0 L 1.625 -4.21875 L 0.109375 -4.21875 L 0.109375 -4.8125 Z M 3.8125 -4.8125 "/></g></g></g><g fill="rgb(0%, 0%, 0%)" fill-opacity="1"><g transform="translate(100.104141, 123.612564)"><g><path d="M 3.8125 0 C 3.726562 -0.207031 3.648438 -0.410156 3.578125 -0.609375 C 3.515625 -0.816406 3.445312 -1.023438 3.375 -1.234375 L 1.1875 -1.234375 L 0.75 0 L 0.0625 0 C 0.238281 -0.507812 0.40625 -0.976562 0.5625 -1.40625 C 0.726562 -1.84375 0.890625 -2.253906 1.046875 -2.640625 C 1.203125 -3.023438 1.351562 -3.394531 1.5 -3.75 C 1.65625 -4.101562 1.816406 -4.457031 1.984375 -4.8125 L 2.609375 -4.8125 C 2.773438 -4.457031 2.929688 -4.101562 3.078125 -3.75 C 3.234375 -3.394531 3.390625 -3.023438 3.546875 -2.640625 C 3.703125 -2.253906 3.859375 -1.84375 4.015625 -1.40625 C 4.179688 -0.976562 4.359375 -0.507812 4.546875 0 Z M 3.171875 -1.78125 C 3.023438 -2.1875 2.878906 -2.578125 2.734375 -2.953125 C 2.585938 -3.328125 2.4375 -3.6875 2.28125 -4.03125 C 2.125 -3.6875 1.972656 -3.328125 1.828125 -2.953125 C 1.679688 -2.578125 1.535156 -2.1875 1.390625 -1.78125 Z M 3.171875 -1.78125 "/></g></g></g><g fill="rgb(0%, 0%, 0%)" fill-opacity="1"><g transform="translate(104.70883, 123.612564)"><g><path d="M 3.8125 -4.8125 L 3.8125 -4.21875 L 2.296875 -4.21875 L 2.296875 0 L 1.625 0 L 1.625 -4.21875 L 0.109375 -4.21875 L 0.109375 -4.8125 Z M 3.8125 -4.8125 "/></g></g></g><g fill="rgb(0%, 0%, 0%)" fill-opacity="1"><g transform="translate(108.632885, 123.612564)"><g><path d="M 3.8125 -4.8125 L 3.8125 -4.21875 L 2.296875 -4.21875 L 2.296875 0 L 1.625 0 L 1.625 -4.21875 L 0.109375 -4.21875 L 0.109375 -4.8125 Z M 3.8125 -4.8125 "/></g></g></g><g fill="rgb(0%, 0%, 0%)" fill-opacity="1"><g transform="translate(112.55694, 123.612564)"><g><path d="M 0.40625 -2.40625 C 0.40625 -2.820312 0.460938 -3.1875 0.578125 -3.5 C 0.703125 -3.8125 0.867188 -4.070312 1.078125 -4.28125 C 1.296875 -4.488281 1.539062 -4.644531 1.8125 -4.75 C 2.09375 -4.863281 2.394531 -4.921875 2.71875 -4.921875 C 3.019531 -4.921875 3.304688 -4.863281 3.578125 -4.75 C 3.859375 -4.644531 4.101562 -4.488281 4.3125 -4.28125 C 4.519531 -4.070312 4.6875 -3.8125 4.8125 -3.5 C 4.9375 -3.1875 5 -2.820312 5 -2.40625 C 5 -2 4.9375 -1.632812 4.8125 -1.3125 C 4.6875 -1 4.519531 -0.738281 4.3125 -0.53125 C 4.101562 -0.320312 3.859375 -0.160156 3.578125 -0.046875 C 3.304688 0.0546875 3.019531 0.109375 2.71875 0.109375 C 2.394531 0.109375 2.09375 0.0546875 1.8125 -0.046875 C 1.539062 -0.160156 1.296875 -0.320312 1.078125 -0.53125 C 0.867188 -0.738281 0.703125 -1 0.578125 -1.3125 C 0.460938 -1.632812 0.40625 -2 0.40625 -2.40625 Z M 1.109375 -2.40625 C 1.109375 -2.113281 1.144531 -1.847656 1.21875 -1.609375 C 1.289062 -1.367188 1.394531 -1.164062 1.53125 -1 C 1.664062 -0.832031 1.832031 -0.703125 2.03125 -0.609375 C 2.226562 -0.523438 2.453125 -0.484375 2.703125 -0.484375 C 2.941406 -0.484375 3.160156 -0.523438 3.359375 -0.609375 C 3.554688 -0.703125 3.722656 -0.832031 3.859375 -1 C 3.992188 -1.164062 4.097656 -1.367188 4.171875 -1.609375 C 4.242188 -1.847656 4.28125 -2.113281 4.28125 -2.40625 C 4.28125 -2.695312 4.242188 -2.960938 4.171875 -3.203125 C 4.097656 -3.441406 3.992188 -3.644531 3.859375 -3.8125 C 3.722656 -3.976562 3.554688 -4.101562 3.359375 -4.1875 C 3.160156 -4.28125 2.941406 -4.328125 2.703125 -4.328125 C 2.453125 -4.328125 2.226562 -4.28125 2.03125 -4.1875 C 1.832031 -4.101562 1.664062 -3.976562 1.53125 -3.8125 C 1.394531 -3.644531 1.289062 -3.441406 1.21875 -3.203125 C 1.144531 -2.960938 1.109375 -2.695312 1.109375 -2.40625 Z M 1.109375 -2.40625 "/></g></g></g><g fill="rgb(0%, 0%, 0%)" fill-opacity="1"><g transform="translate(117.960328, 123.612564)"><g><path d="M 0.40625 -2.40625 C 0.40625 -2.820312 0.460938 -3.1875 0.578125 -3.5 C 0.703125 -3.8125 0.867188 -4.070312 1.078125 -4.28125 C 1.296875 -4.488281 1.539062 -4.644531 1.8125 -4.75 C 2.09375 -4.863281 2.394531 -4.921875 2.71875 -4.921875 C 3.019531 -4.921875 3.304688 -4.863281 3.578125 -4.75 C 3.859375 -4.644531 4.101562 -4.488281 4.3125 -4.28125 C 4.519531 -4.070312 4.6875 -3.8125 4.8125 -3.5 C 4.9375 -3.1875 5 -2.820312 5 -2.40625 C 5 -2 4.9375 -1.632812 4.8125 -1.3125 C 4.6875 -1 4.519531 -0.738281 4.3125 -0.53125 C 4.101562 -0.320312 3.859375 -0.160156 3.578125 -0.046875 C 3.304688 0.0546875 3.019531 0.109375 2.71875 0.109375 C 2.394531 0.109375 2.09375 0.0546875 1.8125 -0.046875 C 1.539062 -0.160156 1.296875 -0.320312 1.078125 -0.53125 C 0.867188 -0.738281 0.703125 -1 0.578125 -1.3125 C 0.460938 -1.632812 0.40625 -2 0.40625 -2.40625 Z M 1.109375 -2.40625 C 1.109375 -2.113281 1.144531 -1.847656 1.21875 -1.609375 C 1.289062 -1.367188 1.394531 -1.164062 1.53125 -1 C 1.664062 -0.832031 1.832031 -0.703125 2.03125 -0.609375 C 2.226562 -0.523438 2.453125 -0.484375 2.703125 -0.484375 C 2.941406 -0.484375 3.160156 -0.523438 3.359375 -0.609375 C 3.554688 -0.703125 3.722656 -0.832031 3.859375 -1 C 3.992188 -1.164062 4.097656 -1.367188 4.171875 -1.609375 C 4.242188 -1.847656 4.28125 -2.113281 4.28125 -2.40625 C 4.28125 -2.695312 4.242188 -2.960938 4.171875 -3.203125 C 4.097656 -3.441406 3.992188 -3.644531 3.859375 -3.8125 C 3.722656 -3.976562 3.554688 -4.101562 3.359375 -4.1875 C 3.160156 -4.28125 2.941406 -4.328125 2.703125 -4.328125 C 2.453125 -4.328125 2.226562 -4.28125 2.03125 -4.1875 C 1.832031 -4.101562 1.664062 -3.976562 1.53125 -3.8125 C 1.394531 -3.644531 1.289062 -3.441406 1.21875 -3.203125 C 1.144531 -2.960938 1.109375 -2.695312 1.109375 -2.40625 Z M 1.109375 -2.40625 "/></g></g></g></svg>